<svg xmlns="http://www.w3.org/2000/svg" viewBox="0 0 512 512" role="img" aria-labelledby="title desc">
  <title id="title">TuuTuut icon</title>
  <desc id="desc">Logo de TuuTuut avec un bus vu de face et un T au centre.</desc>
  <defs>
    <linearGradient id="bg" x1="76" y1="56" x2="434" y2="456" gradientUnits="userSpaceOnUse">
      <stop offset="0" stop-color="#0f8e88" />
      <stop offset="1" stop-color="#102027" />
    </linearGradient>
    <linearGradient id="busBody" x1="160" y1="108" x2="352" y2="412" gradientUnits="userSpaceOnUse">
      <stop offset="0" stop-color="#fffaf0" />
      <stop offset="1" stop-color="#f0e5d3" />
    </linearGradient>
  </defs>

  <rect x="32" y="32" width="448" height="448" rx="120" fill="url(#bg)" />
  <circle cx="256" cy="256" r="172" fill="#ffffff" opacity="0.08" />

  <g transform="translate(106 86)">
    <rect x="42" y="16" width="216" height="300" rx="70" fill="url(#busBody)" />
    <rect x="62" y="40" width="176" height="92" rx="32" fill="#12353f" />
    <rect x="76" y="54" width="148" height="64" rx="24" fill="#1d5a63" />

    <rect x="72" y="154" width="160" height="92" rx="28" fill="#0f8e88" />
    <path d="M134 176h36v16h-10v44h-16v-44h-10z" fill="#fffaf0" />

    <rect x="84" y="258" width="54" height="16" rx="8" fill="#c4d0cc" />
    <rect x="166" y="258" width="54" height="16" rx="8" fill="#c4d0cc" />

    <circle cx="94" cy="316" r="26" fill="#102027" />
    <circle cx="206" cy="316" r="26" fill="#102027" />
    <circle cx="94" cy="316" r="11" fill="#fffaf0" opacity="0.9" />
    <circle cx="206" cy="316" r="11" fill="#fffaf0" opacity="0.9" />

    <rect x="32" y="100" width="18" height="134" rx="9" fill="#f2c14e" opacity="0.95" />
    <rect x="250" y="100" width="18" height="134" rx="9" fill="#f2c14e" opacity="0.95" />
    <rect x="64" y="286" width="172" height="12" rx="6" fill="#d7c3a1" />
  </g>

  <path
    d="M168 408c25 16 55 24 88 24s63-8 88-24"
    fill="none"
    stroke="#f2c14e"
    stroke-linecap="round"
    stroke-width="18"
  />
</svg>
