<svg xmlns="http://www.w3.org/2000/svg" viewBox="0 0 512 512" role="img" aria-labelledby="title desc">
  <title id="title">TuuTuut icon</title>
  <desc id="desc">Icône stylisée de bus TCL pour la webapp TuuTuut.</desc>
  <defs>
    <linearGradient id="bg" x1="64" x2="448" y1="64" y2="448" gradientUnits="userSpaceOnUse">
      <stop offset="0" stop-color="#0b7a75" />
      <stop offset="1" stop-color="#102027" />
    </linearGradient>
  </defs>
  <rect x="32" y="32" width="448" height="448" rx="120" fill="url(#bg)" />
  <rect x="128" y="112" width="256" height="208" rx="44" fill="#f8f3e9" />
  <rect x="152" y="136" width="208" height="92" rx="20" fill="#0b7a75" opacity="0.16" />
  <rect x="152" y="248" width="208" height="24" rx="12" fill="#d8ddd2" />
  <circle cx="188" cy="336" r="28" fill="#f8f3e9" />
  <circle cx="324" cy="336" r="28" fill="#f8f3e9" />
  <path
    d="M124 360h36c8 0 14 6 14 14v22h-50v-22c0-8 6-14 14-14Zm200 0h36c8 0 14 6 14 14v22h-50v-22c0-8 6-14 14-14Z"
    fill="#f8f3e9"
  />
  <path
    d="M174 420c25 18 53 28 82 28s57-10 82-28"
    fill="none"
    stroke="#f2c14e"
    stroke-linecap="round"
    stroke-width="20"
  />
  <path
    d="M208 84c20-14 43-20 68-20 36 0 68 13 94 40"
    fill="none"
    stroke="#f2c14e"
    stroke-linecap="round"
    stroke-width="18"
  />
</svg>
